<?xml version="1.0" standalone="no"?>
<!DOCTYPE svg PUBLIC "-//W3C//DTD SVG 20010904//EN"
 "http://www.w3.org/TR/2001/REC-SVG-20010904/DTD/svg10.dtd">
<svg version="1.0" xmlns="http://www.w3.org/2000/svg"
 width="512.000000pt" height="512.000000pt" viewBox="0 0 512.000000 512.000000"
 preserveAspectRatio="xMidYMid meet">

<g transform="translate(0.000000,512.000000) scale(0.100000,-0.100000)"
fill="#000000" stroke="none">
<path d="M370 2975 l0 -2145 435 0 435 0 0 -410 c0 -307 3 -410 12 -410 6 0
354 184 773 410 l762 410 981 0 982 0 0 2145 0 2145 -2190 0 -2190 0 0 -2145z
m4080 5 l0 -1840 -862 0 -861 0 -580 -312 c-319 -172 -584 -314 -589 -316 -4
-2 -9 137 -10 310 l-3 313 -437 3 -438 2 0 1840 0 1840 1890 0 1890 0 0 -1840z"/>
<path d="M3452 3243 l3 -578 148 -3 147 -3 0 581 0 580 -150 0 -150 0 2 -577z"/>
<path d="M1340 2985 l0 -725 150 0 150 0 0 300 0 300 245 0 245 0 2 -297 3
-298 148 -3 147 -3 0 726 0 725 -150 0 -150 0 0 -275 0 -275 -245 0 -245 0 0
275 0 275 -150 0 -150 0 0 -725z"/>
<path d="M2780 2985 l0 -726 148 3 147 3 3 723 2 722 -150 0 -150 0 0 -725z"/>
<path d="M3520 2438 c-108 -74 -109 -212 -1 -285 40 -27 117 -31 161 -8 78 40
111 145 71 222 -29 58 -73 86 -140 91 -46 3 -62 0 -91 -20z"/>
</g>
</svg>
